<svg width="32" height="32" viewBox="0 0 32 32" fill="none" xmlns="http://www.w3.org/2000/svg">
<path d="M27.8693 17.6641C27.5173 17.6641 27.1493 17.5517 26.7973 17.4714C26.0843 17.3115 25.3833 17.1023 24.7003 16.8451C23.9573 16.5741 23.1403 16.5882 22.4073 16.8846C21.6743 17.1811 21.0773 17.739 20.7293 18.4509L20.3773 19.1896C18.8223 18.3051 17.3863 17.2259 16.1023 15.978C14.8583 14.6907 13.7823 13.25 12.9003 11.6904L13.6373 11.3532C14.3473 11.0046 14.9033 10.405 15.1983 9.6698C15.4943 8.9346 15.5083 8.1157 15.2383 7.3707C14.9833 6.6787 14.7753 5.9706 14.6133 5.2511C14.5333 4.8978 14.4693 4.5284 14.4213 4.1751C14.2273 3.044 13.6363 2.0197 12.7563 1.2867C11.8753 0.553601 10.7623 0.160001 9.61831 0.176601H4.79931C4.12231 0.175801 3.45329 0.3184 2.83529 0.5951C2.21729 0.8718 1.66431 1.2765 1.21331 1.7825C0.75331 2.3022 0.410305 2.9158 0.208305 3.581C0.00630493 4.2463 -0.0496965 4.9475 0.0443035 5.6365C0.915303 12.3201 3.95929 18.5291 8.70629 23.3005C13.4633 28.0615 19.6533 31.1151 26.3173 31.9881C26.5243 32.004 26.7333 32.004 26.9413 31.9881C28.1213 31.9898 29.2613 31.5553 30.1433 30.7676C30.6473 30.3151 31.0513 29.7606 31.3273 29.1407C31.6033 28.5208 31.7453 27.8494 31.7443 27.1706V22.3531C31.7353 21.2435 31.3453 20.171 30.6393 19.3166C29.9333 18.4623 28.9553 17.8786 27.8693 17.6641ZM28.6543 27.299C28.6533 27.5231 28.6063 27.7446 28.5153 27.9493C28.4243 28.1539 28.2913 28.3372 28.1263 28.4874C27.9503 28.6477 27.7413 28.7669 27.5143 28.8363C27.2873 28.9058 27.0483 28.9237 26.8133 28.8888C20.8383 28.1062 15.2863 25.3753 11.0113 21.1166C6.73228 16.825 3.9863 11.2366 3.1983 5.2189C3.1643 4.9834 3.1813 4.7431 3.2513 4.5153C3.3203 4.2876 3.4393 4.0782 3.5993 3.9022C3.7503 3.7338 3.9353 3.5995 4.1423 3.5082C4.3493 3.4168 4.57331 3.3705 4.79931 3.3722H9.60229C9.97229 3.3632 10.3343 3.483 10.6263 3.7114C10.9183 3.9398 11.1223 4.2625 11.2033 4.6248C11.2033 5.0584 11.3473 5.508 11.4433 5.9416C11.6283 6.7828 11.8753 7.6093 12.1803 8.4145L9.93829 9.4744C9.55329 9.6518 9.25428 9.9752 9.10629 10.3736C8.94629 10.7646 8.94629 11.2031 9.10629 11.5941C11.4103 16.5444 15.3773 20.5237 20.3133 22.8348C20.7033 22.9955 21.1403 22.9955 21.5303 22.8348C21.9273 22.6865 22.2493 22.3862 22.4263 21.9998L23.4353 19.7517C24.2613 20.0538 25.1063 20.3005 25.9643 20.4903C26.3813 20.5867 26.8293 20.667 27.2613 20.7312C27.6223 20.8128 27.9443 21.0174 28.1723 21.3102C28.3993 21.603 28.5193 21.9658 28.5103 22.337L28.6543 27.299ZM19.2083 0C18.8403 0 18.4563 0 18.0873 0C17.6633 0.0362 17.2703 0.240098 16.9953 0.566898C16.7213 0.893598 16.5863 1.3164 16.6233 1.7423C16.6593 2.1682 16.8623 2.5623 17.1883 2.8378C17.5133 3.1134 17.9353 3.2479 18.3603 3.2117H19.2083C21.7563 3.2117 24.1993 4.2268 26.0013 6.0337C27.8023 7.8406 28.8143 10.2913 28.8143 12.8466C28.8143 13.1357 28.8143 13.4086 28.8143 13.6977C28.7793 14.1213 28.9123 14.5418 29.1853 14.8669C29.4583 15.192 29.8493 15.3952 30.2713 15.432H30.3993C30.8003 15.4336 31.1873 15.2844 31.4833 15.0139C31.7793 14.7433 31.9643 14.3711 32.0003 13.9707C32.0003 13.6013 32.0003 13.2159 32.0003 12.8466C32.0003 9.4423 30.6533 6.1771 28.2543 3.7684C25.8563 1.3596 22.6023 0.0043 19.2083 0ZM22.4103 12.8466C22.4103 13.2725 22.5793 13.6809 22.8793 13.9821C23.1793 14.2833 23.5863 14.4524 24.0113 14.4524C24.4363 14.4524 24.8433 14.2833 25.1433 13.9821C25.4433 13.6809 25.6123 13.2725 25.6123 12.8466C25.6123 11.143 24.9373 9.5092 23.7363 8.3046C22.5353 7.1 20.9073 6.4233 19.2083 6.4233C18.7843 6.4233 18.3763 6.5925 18.0763 6.8936C17.7763 7.1948 17.6073 7.6032 17.6073 8.0291C17.6073 8.455 17.7763 8.8635 18.0763 9.1646C18.3763 9.4658 18.7843 9.635 19.2083 9.635C20.0573 9.635 20.8723 9.9733 21.4723 10.5756C22.0733 11.1779 22.4103 11.9948 22.4103 12.8466Z" fill="white"/>
</svg>
